<?xml version="1.0" encoding="UTF-8"?>
<svg version="1.1" xmlns="http://www.w3.org/2000/svg" width="512" height="512">
<path d="M0 0 C7.06062499 4.97671237 12.41707223 11.8648647 14.01171875 20.41796875 C14.05765161 22.16091202 14.07039451 23.90495984 14.0546875 25.6484375 C14.04848389 26.54328857 14.04228027 27.43813965 14.03588867 28.36010742 C14.0279126 29.03920166 14.01993652 29.7182959 14.01171875 30.41796875 C30.09387436 38.97902387 46.28752675 47.30301782 62.75317383 55.10534668 C77.88939011 62.27961611 92.8497685 69.79909762 107.81359863 77.32409668 C111.98258706 79.4203198 116.15290528 81.51387458 120.32421875 83.60546875 C121.47788437 84.18438873 122.63154999 84.76330872 123.82017517 85.35977173 C132.31280835 89.60644525 140.85806773 93.73302898 149.47351074 97.72509766 C154.56284806 100.11472077 159.30393696 102.75906547 164.02757263 105.80789185 C175.82480821 113.39018968 189.49074811 112.43594908 203.01342773 112.22119141 C219.51142241 111.99435561 219.51142241 111.99435561 226.01171875 116.41796875 C226.63618896 116.82595703 227.26065918 117.23394531 227.90405273 117.65429688 C233.66810421 121.96313178 237.32917268 128.17066283 238.47199941 135.28217506 C238.65291576 138.48690271 238.67849992 141.6567561 238.64663696 144.86645508 C238.65443692 146.08484227 238.66223687 147.30322947 238.67027318 148.55853748 C238.6866834 151.91480721 238.68089223 155.2696637 238.66534209 158.62584543 C238.65397891 162.25511774 238.67151575 165.88427101 238.6852417 169.51351929 C238.70742599 176.61297539 238.70269451 183.71216657 238.68817849 190.81163287 C238.67686723 196.58364195 238.67536349 202.355577 238.68079758 208.12759399 C238.68194682 209.36181728 238.68194682 209.36181728 238.68311929 210.62097436 C238.68471798 212.29272773 238.68633905 213.96448108 238.68798225 215.6362344 C238.70222565 231.29685092 238.68586917 246.95732089 238.65898041 262.61791337 C238.63664289 276.0432005 238.64052342 289.46827145 238.66357422 302.89355469 C238.69035716 318.49972814 238.70085249 334.10577328 238.6855129 349.71196651 C238.68392023 351.37742549 238.68234837 353.04288449 238.68079758 354.70834351 C238.67964051 355.9373653 238.67964051 355.9373653 238.67846007 357.19121581 C238.67415054 362.95348725 238.68141347 368.71567701 238.69319534 374.47793579 C238.70724664 381.50428909 238.70336542 388.53036324 238.67679162 395.55668473 C238.66368849 399.13882059 238.65844035 402.72049177 238.67503738 406.30262375 C238.69278412 410.19183702 238.67153502 414.08029634 238.64663696 417.96948242 C238.65779057 419.0930354 238.66894418 420.21658838 238.68043578 421.37418842 C238.57802175 429.63561733 236.74152688 436.39023564 231.0220114 442.56660748 C223.46949997 449.73281333 216.62626024 450.86475078 206.5402832 450.82202148 C204.83663605 450.83231636 204.83663605 450.83231636 203.09857178 450.84281921 C199.35725286 450.86107055 195.61635373 450.85725327 191.875 450.8515625 C189.27141687 450.85612373 186.66783494 450.86142913 184.06425476 450.8674469 C178.6146545 450.87745886 173.16517307 450.87419243 167.71557617 450.86401367 C161.41865671 450.85251212 155.12216215 450.86664847 148.82529861 450.89341015 C142.75812976 450.91822807 136.69117985 450.92074806 130.62395287 450.91429329 C128.04549641 450.91413968 125.46703191 450.92021662 122.88860512 450.93258476 C119.29040206 450.94741827 115.69314365 450.93687432 112.0949707 450.91967773 C111.02631271 450.9293457 109.95765472 450.93901367 108.85661316 450.94897461 C101.65291324 450.87667477 101.65291324 450.87667477 98.35002136 448.5138092 C96.05843078 444.92507808 96.54501563 442.61829683 97.01171875 438.41796875 C98.82335142 435.74365386 99.88932952 435.45876516 103.01171875 434.41796875 C104.52318271 434.32368953 106.03843199 434.28472085 107.55282593 434.27993774 C108.48369522 434.27448441 109.41456451 434.26903107 110.37364197 434.26341248 C111.39293289 434.26237015 112.41222382 434.26132782 113.46240234 434.26025391 C114.53745529 434.25517319 115.61250824 434.25009247 116.72013855 434.24485779 C119.05769406 434.23414771 121.39525987 434.22553004 123.73283005 434.21873856 C127.43104186 434.20696476 131.1291361 434.1875162 134.82730103 434.1656189 C145.34316403 434.10394799 155.85901019 434.04992433 166.375 434.01660156 C172.80409392 433.99567877 179.23297365 433.96039495 185.66194534 433.91584396 C188.11394355 433.90166522 190.56597966 433.89295732 193.01801682 433.88978958 C196.4463219 433.88489147 199.87405654 433.86176117 203.30224609 433.83447266 C204.31748856 433.83747879 205.33273102 433.84048492 206.3787384 433.84358215 C213.20037667 433.78601249 213.20037667 433.78601249 219.01171875 430.41796875 C221.18050835 427.16478435 221.26249352 426.27601249 221.26619434 422.51813698 C221.27202654 421.50157921 221.27785873 420.48502145 221.28386766 419.43765891 C221.28008833 418.31754207 221.27630901 417.19742524 221.27241516 416.04336548 C221.27624071 414.8560163 221.28006626 413.66866711 221.28400773 412.44533765 C221.29256089 409.14383479 221.29209656 405.84255383 221.28782713 402.54105711 C221.28536659 398.98268672 221.29436573 395.42434283 221.30186462 391.86598206 C221.31463275 384.89231598 221.31640266 377.91868838 221.31406436 370.94501258 C221.31228327 365.27769257 221.31402635 359.61038426 221.3182888 353.94306564 C221.31918159 352.73439559 221.31918159 352.73439559 221.32009241 351.50130796 C221.32130413 349.86449421 221.32251826 348.22768047 221.32373478 346.59086673 C221.33461863 331.23044831 221.33244394 315.87005182 221.32634994 300.50963216 C221.32118095 286.45171126 221.33243422 272.39385966 221.35144816 258.33595248 C221.37081201 243.90895847 221.37908505 229.48199727 221.3753249 215.05499017 C221.37341053 206.95228253 221.37592328 198.84963386 221.39003944 190.7469368 C221.4019358 183.84843546 221.40337788 176.9500294 221.39124928 170.0515268 C221.38534803 166.53091133 221.38429526 163.01047026 221.39625168 159.48986626 C221.40905586 155.67533686 221.39867545 151.86107363 221.38594055 148.04653931 C221.39331484 146.93088392 221.40068912 145.81522853 221.40828687 144.6657654 C221.49647905 137.48009945 221.49647905 137.48009945 218.01171875 131.41796875 C214.80991384 129.13096885 211.92305853 129.16763616 208.05958557 129.16641235 C206.84126038 129.16102951 205.62293518 129.15564667 204.36769104 129.15010071 C203.0205989 129.15411475 201.67350723 129.15828567 200.32641602 129.16259766 C198.90538329 129.15984715 197.48435211 129.15616688 196.06332397 129.15162659 C193.00493352 129.1435185 189.94661617 129.14134513 186.88821602 129.14357376 C182.05155083 129.14640717 177.21503168 129.13205415 172.37840271 129.11459351 C158.62558174 129.06756833 144.87277084 129.04362323 131.11987305 129.03710938 C123.52292275 129.03335931 115.9261378 129.01533522 108.32925838 128.98201501 C103.5218514 128.96179276 98.7148706 128.95943447 93.9074384 128.97029519 C90.91561907 128.97290223 87.92404793 128.958899 84.93229294 128.94021416 C83.54598711 128.93489161 82.15963559 128.93639014 80.77334785 128.94524956 C78.8791959 128.9563774 76.98494306 128.94058932 75.09083557 128.92349243 C74.03135995 128.9224029 72.97188433 128.92131336 71.88030338 128.92019081 C68.28411703 128.29058271 66.60813114 126.93620769 64.01171875 124.41796875 C62.54875398 120.94342741 62.89896756 119.69716217 64.32421875 116.16796875 C66.01171875 113.41796875 66.01171875 113.41796875 68.01171875 112.41796875 C70.22708604 112.29701834 72.44605879 112.24047703 74.66455078 112.21264648 C75.34759277 112.20274689 76.03063477 112.19284729 76.734375 112.18264771 C78.99605828 112.15101566 81.25776257 112.12626864 83.51953125 112.1015625 C85.0860957 112.08099444 86.65265458 112.059998 88.21920776 112.03858948 C92.34555557 111.98335353 96.47195358 111.933951 100.59838867 111.88574219 C104.80782549 111.83553827 109.01718925 111.77984642 113.2265625 111.72460938 C121.48821951 111.61700917 129.74993757 111.51556836 138.01171875 111.41796875 C131.31360294 108.05598442 124.61376244 104.69745479 117.9128418 101.34106445 C115.64456147 100.20444608 113.37664376 99.06710368 111.10913086 97.92895508 C99.70441662 92.20509872 88.29034286 86.51374645 76.76171875 81.04296875 C63.25828351 74.63217527 49.9056584 67.92247297 36.5458374 61.21936035 C33.19994899 59.54118544 29.85284369 57.86544097 26.50585938 56.18945312 C20.00666183 52.93458434 13.50874895 49.67716203 7.01171875 46.41796875 C6.48352539 46.82934082 5.95533203 47.24071289 5.41113281 47.66455078 C4.70698242 48.20450684 4.00283203 48.74446289 3.27734375 49.30078125 C2.58415039 49.83590332 1.89095703 50.37102539 1.17675781 50.92236328 C-5.75259044 55.7091458 -13.78174112 56.39035827 -21.98828125 55.41796875 C-26.89851057 54.08811497 -30.86478044 52.34173608 -34.80078125 49.10546875 C-36.84346813 47.12571767 -36.84346813 47.12571767 -39.34423828 47.68017578 C-41.9364441 48.40350413 -44.09122645 49.30533116 -46.48046875 50.53515625 C-47.35316406 50.97859375 -48.22585937 51.42203125 -49.125 51.87890625 C-50.02863281 52.34554687 -50.93226563 52.8121875 -51.86328125 53.29296875 C-59.3082376 57.11325547 -66.81258389 60.77405105 -74.37109375 64.36328125 C-83.48199735 68.69774965 -92.53143248 73.14699416 -101.55078125 77.66796875 C-102.17799198 77.98229984 -102.80520271 78.29663094 -103.45141983 78.62048721 C-107.96515291 80.88343809 -112.47692922 83.15027566 -116.98828125 85.41796875 C-121.51468342 87.693227 -126.041859 89.96692226 -130.57077026 92.23718262 C-132.32287887 93.11633558 -134.07371145 93.99803028 -135.82446289 94.87988281 C-147.13565545 100.55208104 -158.56262374 105.98103852 -169.98828125 111.41796875 C-168.88391598 111.41943531 -167.7795507 111.42090187 -166.64171982 111.42241287 C-139.79372789 111.45897686 -112.94586102 111.51838562 -86.09797287 111.60187149 C-73.11462949 111.64171318 -60.13134717 111.6740796 -47.14794922 111.68896484 C-35.83413649 111.70195478 -24.52045783 111.7288513 -13.20672059 111.77258182 C-7.21388235 111.79525646 -1.22120984 111.81087584 4.77167511 111.8098526 C10.40893001 111.80910953 16.04581773 111.82691782 21.68297768 111.85913658 C23.75502919 111.867676 25.8271217 111.8693583 27.89918327 111.86377144 C30.72271223 111.85717077 33.54505937 111.87495737 36.36846924 111.89898682 C37.19337176 111.8912264 38.01827427 111.88346598 38.86817384 111.8754704 C42.5013983 111.93042083 44.58233101 112.09098499 47.51652145 114.32540512 C49.12627916 116.57829872 49.57957214 117.67703277 49.57421875 120.41796875 C49.59613281 121.07796875 49.61804688 121.73796875 49.640625 122.41796875 C48.58900667 125.76224569 47.023454 126.62043217 44.01171875 128.41796875 C40.106118 129.02142237 36.22784825 128.95112412 32.28271484 128.91676331 C31.08140615 128.92214786 29.88009747 128.92753241 28.64238548 128.93308014 C25.31094943 128.94406038 21.98041293 128.93716396 18.6490469 128.92279708 C15.05525183 128.91168308 11.46152659 128.92367564 7.86773682 128.9329834 C1.64121193 128.94607595 -4.58517872 128.94490848 -10.81170654 128.93438911 C-19.81965221 128.91945359 -28.82744029 128.92936096 -37.83537698 128.9459083 C-52.45731285 128.97237167 -67.07921337 128.98322812 -81.70117188 128.98217773 C-82.57627356 128.98211941 -83.45137524 128.98206109 -84.35299516 128.982001 C-87.89889539 128.98173514 -91.44479561 128.98141786 -94.99069583 128.98103774 C-104.75226124 128.98007141 -114.51382558 128.98139941 -124.27539062 128.98413086 C-125.14942669 128.98437075 -126.02346276 128.98461064 -126.92398477 128.98485781 C-141.49117446 128.98926251 -156.0583313 129.00548803 -170.62550163 129.02935165 C-179.61221654 129.04343274 -188.59880677 129.04629297 -197.58552599 129.03472876 C-203.74112662 129.02741272 -209.89666439 129.03045608 -216.05225897 129.0416872 C-219.60529301 129.04776763 -223.15815127 129.04882928 -226.71117401 129.03680992 C-230.560625 129.02386583 -234.40981962 129.03390246 -238.25927734 129.04615784 C-239.94822333 129.03479375 -239.94822333 129.03479375 -241.67128944 129.02320009 C-242.70227949 129.03018984 -243.73326954 129.03717959 -244.79550171 129.04438114 C-245.68399496 129.04411145 -246.57248821 129.04384176 -247.4879055 129.0435639 C-250.62479434 129.51327986 -252.45806198 130.51886091 -254.98828125 132.41796875 C-257.04947929 135.39718607 -257.24042095 137.86822339 -257.24834347 141.44084835 C-257.25540906 142.45939716 -257.26247465 143.47794598 -257.26975435 144.5273599 C-257.26613172 146.20316589 -257.26613172 146.20316589 -257.26243591 147.91282654 C-257.26767259 149.10103015 -257.27290927 150.28923375 -257.27830464 151.51344353 C-257.29072591 154.8126791 -257.29414779 158.11170168 -257.29370773 161.41094601 C-257.29535523 164.96862497 -257.30842032 168.52626505 -257.31990051 172.08392334 C-257.34275288 179.86269917 -257.35067105 187.64144772 -257.35572696 195.42025256 C-257.35898304 200.27608888 -257.3655049 205.13191727 -257.37272835 209.9877491 C-257.39229289 223.42932982 -257.40869852 236.87090317 -257.41160488 250.31249905 C-257.41179245 251.17267563 -257.41198002 252.03285221 -257.41217327 252.91909475 C-257.41253953 254.66290605 -257.41290323 256.40671736 -257.41326439 258.15052866 C-257.4134472 259.01616914 -257.41363001 259.88180963 -257.41381836 260.77368164 C-257.41399891 261.64037698 -257.41417946 262.50707232 -257.41436548 263.40003116 C-257.41790903 277.45146301 -257.44494331 291.50274179 -257.48231625 305.55412053 C-257.5203698 319.97662781 -257.53976213 334.39905905 -257.54006439 348.82161766 C-257.54064955 356.92101031 -257.54917944 365.02022026 -257.57806206 373.11956596 C-257.60253631 380.01442451 -257.60988564 386.9090337 -257.59481453 393.8039239 C-257.58762976 397.32264162 -257.58856939 400.84086657 -257.61122513 404.3595295 C-257.63553755 408.17194923 -257.62122345 411.98366056 -257.60301208 415.79612732 C-257.61621205 416.91110059 -257.62941202 418.02607386 -257.64301199 419.17483419 C-257.61196482 425.33952103 -257.61196482 425.33952103 -254.57486057 430.58183384 C-250.89624272 433.19317408 -249.13441052 433.54358076 -244.66488934 433.54825401 C-243.52840378 433.55187836 -242.39191821 433.55550271 -241.2209937 433.55923688 C-239.3321744 433.55763451 -239.3321744 433.55763451 -237.40519714 433.55599976 C-236.06234873 433.55841639 -234.71950105 433.56127821 -233.37665445 433.56454909 C-229.67390938 433.57232365 -225.97118282 433.57392264 -222.26843059 433.57460022 C-218.27991536 433.57643613 -214.29141106 433.58404082 -210.30290222 433.59107971 C-203.38719506 433.60261816 -196.47149035 433.61085576 -189.5557766 433.61719894 C-178.62842062 433.62751164 -167.7010952 433.64807162 -156.77375793 433.6703186 C-153.03755103 433.67779873 -149.30134399 433.6852124 -145.56513691 433.69260597 C-144.6313555 433.69445654 -143.69757409 433.6963071 -142.73549628 433.69821375 C-132.10027849 433.71915113 -121.46505732 433.73797456 -110.82983398 433.75585938 C-109.85733612 433.75749756 -108.88483826 433.75913574 -107.88287077 433.76082356 C-92.12098925 433.78711207 -76.35910537 433.80575293 -60.5972112 433.82245128 C-44.42548864 433.83986091 -28.25381218 433.86869439 -12.08212644 433.90734065 C-2.1014161 433.93076391 7.87921908 433.94473731 17.85995712 433.94666828 C24.69820426 433.94877476 31.53637661 433.96167959 38.3745902 433.98314761 C42.32251167 433.99519701 46.27028465 434.00231448 50.21822357 433.99643517 C53.83116572 433.99115095 57.44380457 433.99957785 61.05669602 434.01899154 C62.98552191 434.02575257 64.91438204 434.01772926 66.84320098 434.00921381 C67.98750978 434.01805365 69.13181859 434.02689349 70.31080341 434.03600121 C71.29813129 434.03735773 72.28545916 434.03871426 73.30270606 434.0401119 C76.80066897 434.52801262 79.49797891 435.90422891 82.01171875 438.41796875 C82.60630195 445.67188379 82.60630195 445.67188379 80.338184 448.51792568 C77.45152579 450.87548289 76.0534389 450.91973594 72.36249352 450.92412663 C70.62506671 450.94069816 70.62506671 450.94069816 68.85254037 450.95760447 C67.5792181 450.9493637 66.30589583 450.94112293 64.99398804 450.93263245 C63.62822138 450.93795631 62.26246058 450.94502108 60.89671099 450.9536795 C57.13960665 450.97235657 53.38289512 450.96598458 49.62577415 450.95552647 C45.57513702 450.94854836 41.52458174 450.96452216 37.47396851 450.9775238 C29.53552298 450.99919553 21.59722063 450.99902829 13.65875523 450.99089826 C7.20487898 450.98460278 0.75104453 450.98573116 -5.70283127 450.99217033 C-6.62082201 450.99307199 -7.53881275 450.99397364 -8.4846214 450.99490262 C-10.34948196 450.99675381 -12.21434251 450.99861637 -14.07920305 451.00049018 C-31.57961787 451.01708098 -49.07995214 451.00833998 -66.58036213 450.9915046 C-82.5845424 450.97682027 -98.58853472 450.9914159 -114.59269078 451.02027477 C-131.02552654 451.04968575 -147.45827561 451.06063521 -163.89113653 451.05109257 C-165.75103655 451.05007002 -167.61093659 451.04907541 -169.47083664 451.04810905 C-170.38593418 451.04763266 -171.30103171 451.04715627 -172.24385948 451.04666545 C-178.68533823 451.04450281 -185.12673481 451.05429788 -191.56819534 451.06888008 C-199.42544341 451.08641887 -207.28245222 451.08626457 -215.13969095 451.06352843 C-219.14708142 451.05239777 -223.15405063 451.04919636 -227.16142273 451.06782913 C-230.8345382 451.08468738 -234.50686682 451.0782118 -238.1799318 451.05361234 C-240.1288452 451.04645107 -242.07780187 451.06371647 -244.02664244 451.08202368 C-252.69217093 450.99032875 -259.63806975 449.45622801 -266.13172019 443.42823511 C-273.50075604 435.68457705 -274.4313505 428.67149093 -274.38269043 418.33024597 C-274.38878153 417.11442205 -274.39487264 415.89859813 -274.40114832 414.64593107 C-274.41489089 411.28321748 -274.41523761 407.92099359 -274.40977335 404.55828893 C-274.40709857 400.92693751 -274.4216434 397.2956481 -274.43386841 393.6643219 C-274.45490616 386.554495 -274.4594642 379.44474968 -274.45768052 372.33489534 C-274.45637199 366.55424524 -274.46018171 360.77362055 -274.46760559 354.99297523 C-274.46970483 353.32672749 -274.47180243 351.66047975 -274.47389841 349.994232 C-274.47494194 349.16484211 -274.47598547 348.33545221 -274.47706062 347.48092929 C-274.49595653 331.80034001 -274.49491487 316.11979752 -274.48809129 300.43920157 C-274.4825171 286.10357305 -274.5033371 271.76812331 -274.53645176 257.43253656 C-274.57021009 242.70366964 -274.58535437 227.97488831 -274.58073473 213.24598199 C-274.5784921 204.98048772 -274.58370281 196.71515866 -274.60862732 188.44969749 C-274.62966825 181.41231406 -274.63320496 174.3751864 -274.61432773 167.33779236 C-274.60518666 163.7495864 -274.6039759 160.16185698 -274.62468338 156.57368851 C-274.64691748 152.67777788 -274.63013477 148.78257512 -274.60974121 144.88664246 C-274.62225906 143.76104312 -274.63477691 142.63544378 -274.64767408 141.47573537 C-274.5549503 133.19998901 -272.70467781 126.49093535 -267.0278182 120.26940888 C-262.51121656 115.90668279 -257.22072402 112.75473574 -250.84217834 112.24720764 C-248.53770014 112.28934396 -246.25265278 112.41813491 -243.953125 112.57421875 C-218.18948661 113.63023815 -200.4613047 109.6158108 -178.13850403 96.95526123 C-168.07873083 91.25859581 -157.7040368 86.19138318 -147.34371376 81.07065773 C-143.29718788 79.07009337 -139.25967571 77.0523521 -135.22705078 75.02392578 C-124.05663959 69.40610566 -112.85006706 63.88715859 -101.55488586 58.52458191 C-89.44857281 52.76045118 -77.49584192 46.68737426 -65.52905273 40.64038086 C-62.50024194 39.11100469 -59.46904218 37.58645297 -56.4375 36.0625 C-55.51378098 35.59391068 -54.59006195 35.12532135 -53.63835144 34.64253235 C-52.79178482 34.21755966 -51.9452182 33.79258698 -51.07299805 33.35473633 C-49.95794136 32.79161491 -49.95794136 32.79161491 -48.82035828 32.21711731 C-46.98828125 31.41796875 -46.98828125 31.41796875 -44.98828125 31.41796875 C-45.19453125 30.28359375 -45.40078125 29.14921875 -45.61328125 27.98046875 C-46.48930959 20.67593833 -44.65101785 14.38873426 -40.53125 8.3359375 C-30.53462779 -4.09024353 -14.36090081 -8.47411833 0 0 Z M-27.62890625 18.25390625 C-30.02871329 22.07428872 -29.60038243 26.06448505 -28.98828125 30.41796875 C-27.20956728 34.18063292 -25.65691094 35.93593339 -22.30078125 38.35546875 C-17.89093921 39.76994639 -14.4295571 39.72095487 -9.98828125 38.41796875 C-6.70937314 36.60795578 -4.53736348 34.30127494 -2.55078125 31.10546875 C-1.56457119 26.39357622 -1.68886383 22.4449043 -4.29296875 18.3828125 C-6.76599637 15.38688103 -8.23902914 13.66771945 -11.98828125 12.41796875 C-18.89824398 11.85157836 -22.80321484 12.85372777 -27.62890625 18.25390625 Z " fill="#000000" transform="translate(273.98828125,32.58203125)"/>
<path d="M0 0 C0.97575989 -0.0112793 1.95151978 -0.02255859 2.95684814 -0.03417969 C4.55287872 -0.0220343 4.55287872 -0.0220343 6.18115234 -0.00964355 C7.30672546 -0.01665283 8.43229858 -0.02366211 9.59197998 -0.03088379 C13.31726662 -0.04850703 17.0417953 -0.03682488 20.76708984 -0.02331543 C23.35254055 -0.02600908 25.93799027 -0.02989043 28.5234375 -0.03491211 C33.94395517 -0.04081307 39.3641873 -0.03260556 44.78466797 -0.0135498 C51.04916422 0.00821894 57.31313973 0.00116743 63.57762337 -0.02085543 C69.60689611 -0.04120205 75.63591431 -0.03903913 81.66522217 -0.02732849 C84.22971672 -0.02465668 86.79422453 -0.02794685 89.35870361 -0.0372467 C92.940505 -0.04738465 96.521301 -0.03194803 100.10302734 -0.00964355 C101.16704773 -0.01774048 102.23106812 -0.0258374 103.32733154 -0.03417969 C110.47085282 0.04839585 110.47085282 0.04839585 113.796875 2.32543945 C115.81925507 5.60657677 115.73787077 7.7346554 115.14208984 11.50793457 C113.49208984 13.15793457 111.84208984 14.80793457 110.14208984 16.50793457 C76.15208984 16.50793457 42.16208984 16.50793457 7.14208984 16.50793457 C7.14208984 97.68793457 7.14208984 178.86793457 7.14208984 262.50793457 C145.74208984 262.50793457 284.34208984 262.50793457 427.14208984 262.50793457 C427.14208984 181.32793457 427.14208984 100.14793457 427.14208984 16.50793457 C406.10974609 16.5311377 385.07740234 16.55434082 363.40771484 16.57824707 C350.11865202 16.58846075 336.82959159 16.59818304 323.54052734 16.60559082 C316.56233714 16.60950672 309.58414704 16.61354773 302.60595703 16.61779785 C301.294006 16.6185891 301.294006 16.6185891 299.95555091 16.61939633 C285.82486595 16.62810114 271.69419722 16.64387219 257.56352189 16.66224016 C243.06770452 16.68092599 228.57189566 16.6920485 214.07606673 16.69611156 C205.12732016 16.69885936 196.17861944 16.70754619 187.22988698 16.7237675 C181.09809163 16.73431813 174.96632009 16.73753957 168.83451632 16.73493733 C165.2938234 16.73365303 161.75321078 16.73565781 158.21253204 16.74634552 C154.37784371 16.75783649 150.54326085 16.75392349 146.70855713 16.7484436 C145.02179882 16.75718213 145.02179882 16.75718213 143.30096459 16.76609719 C142.27584889 16.76211509 141.25073319 16.75813299 140.19455338 16.75403023 C139.30904557 16.75478967 138.42353776 16.75554911 137.51119637 16.75633156 C134.93621239 16.48634865 133.33560179 15.86171657 131.14208984 14.50793457 C129.06049964 11.83160431 129.14621394 10.39039789 129.26708984 6.94543457 C130.14208984 3.50793457 130.14208984 3.50793457 131.86900759 1.81686062 C134.59729531 0.24581018 136.24978877 0.13111575 139.38640594 0.12761784 C140.45433899 0.1191779 141.52227204 0.11073795 142.6225667 0.10204226 C143.79492609 0.1080523 144.96728547 0.11406235 146.1751709 0.12025452 C147.4212498 0.11486898 148.66732871 0.10948344 149.95116758 0.10393471 C153.41205407 0.09208577 156.87246024 0.09373474 160.33332801 0.10110152 C164.06481666 0.10582281 167.79625316 0.09333263 171.52772522 0.08308411 C178.83848966 0.06587081 186.14916825 0.06506125 193.45994771 0.07029701 C199.40042629 0.07433493 205.34087945 0.07289966 211.28135681 0.06754875 C212.5485393 0.06642612 212.5485393 0.06642612 213.84132144 0.06528081 C215.55737738 0.06374937 217.27343332 0.06221102 218.98948926 0.06066584 C235.08907561 0.04693186 251.1886134 0.05238498 267.28819865 0.06385105 C282.02573743 0.07378633 296.76315071 0.06083928 311.50067014 0.03691686 C326.62491514 0.01255119 341.74910163 0.00291162 356.87336588 0.00956959 C365.36783911 0.0130672 373.86221577 0.010794 382.35667419 -0.00668144 C389.58714658 -0.02137174 396.8174544 -0.02208053 404.04792345 -0.00461053 C407.73858553 0.00392784 411.42895323 0.00598045 415.1196003 -0.00926208 C419.11622213 -0.02556433 423.11238504 -0.01102168 427.10900879 0.00672913 C428.86754787 -0.00767838 428.86754787 -0.00767838 430.66161299 -0.02237695 C432.26351256 -0.00765552 432.26351256 -0.00765552 433.89777374 0.00736332 C434.82060418 0.00747066 435.74343461 0.00757799 436.6942296 0.00768858 C439.96918884 0.67696095 441.14815537 1.86020021 443.14208984 4.50793457 C443.6434865 6.73137379 443.6434865 6.73137379 443.64545441 9.2056427 C443.6558854 10.1516569 443.66631639 11.09767111 443.67706347 12.07235241 C443.66814058 13.1085286 443.65921769 14.1447048 443.65002441 15.21228027 C443.65938436 16.86701213 443.65938436 16.86701213 443.66893339 18.55517292 C443.68493374 22.26490234 443.67223103 25.97398111 443.65966797 29.68371582 C443.66508596 32.33790007 443.67206161 34.99203895 443.6809082 37.64620972 C443.6987099 44.11478855 443.69484619 50.58318191 443.68325764 57.05176806 C443.67423004 62.30813798 443.67299639 67.56445586 443.67735291 72.8208313 C443.67796584 73.56848198 443.67857877 74.31613267 443.67921028 75.08643943 C443.68048916 76.60520039 443.68178601 78.12396132 443.68310064 79.64272225 C443.69451127 93.88960265 443.6813852 108.13638015 443.65989918 122.38324368 C443.64202773 134.61203333 443.6451317 146.8406711 443.66357422 159.06945801 C443.68497245 173.26478547 443.69341259 187.4600227 443.68112516 201.65536404 C443.67985095 203.16858862 443.67859346 204.68181323 443.67735291 206.19503784 C443.67642725 207.3118883 443.67642725 207.3118883 443.6754829 208.4513014 C443.67202684 213.70234834 443.67786382 218.95333813 443.68727112 224.20437622 C443.69848088 230.6022656 443.69547281 236.99995864 443.67414814 243.39782548 C443.66362363 246.66320762 443.66168647 249.9281939 443.67274475 253.19358444 C443.68362122 256.7305828 443.67003101 260.26665036 443.65002441 263.80358887 C443.66340874 265.35785316 443.66340874 265.35785316 443.67706347 266.94351673 C443.66141698 268.36253804 443.66141698 268.36253804 443.64545441 269.81022644 C443.644805 270.62673518 443.64415559 271.44324392 443.6434865 272.28449535 C442.92099143 275.48839359 441.80688703 276.60371786 439.14208984 278.50793457 C436.5293074 278.90026415 434.33756484 279.04619026 431.72695923 279.01129913 C430.97390432 279.0171129 430.22084941 279.02292666 429.44497466 279.0289166 C426.90700571 279.04358161 424.36999407 279.02960164 421.83203125 279.01586914 C420.00001339 279.0204755 418.16799921 279.02682662 416.33599281 279.03477812 C411.29035394 279.05153102 406.2450163 279.04319806 401.19937611 279.03083324 C395.76235183 279.0218094 390.32538056 279.0357392 384.8883667 279.04675293 C374.23276782 279.06457129 363.57728142 279.06068341 352.92167807 279.04910237 C344.26428394 279.04008135 335.6069214 279.03883827 326.94952393 279.04319763 C325.71896039 279.04381056 324.48839685 279.0444235 323.2205435 279.045055 C320.72094455 279.04633386 318.22134561 279.04763071 315.72174668 279.04894537 C292.93333095 279.06003524 270.14496945 279.04852027 247.35656396 279.02757498 C226.54480529 279.00859194 205.73314452 279.01029043 184.92138672 279.02941895 C161.54970856 279.05082843 138.17808155 279.05926216 114.80639458 279.04696989 C112.31581498 279.04569565 109.82523538 279.04443817 107.33465576 279.04319763 C105.49637252 279.04227198 105.49637252 279.04227198 103.62095225 279.04132763 C94.97053442 279.03786898 86.32015124 279.04371415 77.66973877 279.05311584 C67.13266661 279.06431594 56.5957137 279.06133773 46.05865526 279.03999287 C40.67895727 279.02945565 35.29945833 279.02540602 29.91976166 279.03858948 C24.99991439 279.05046399 20.08045165 279.04403283 15.16063952 279.02267927 C13.37604681 279.01819216 11.59142195 279.02052639 9.80684972 279.03018242 C7.38983801 279.04226242 4.97416122 279.02995849 2.55722046 279.01129913 C1.85654253 279.0206638 1.1558646 279.03002846 0.433954 279.0396769 C-2.82083782 278.98909706 -4.61525001 278.6813352 -7.28989553 276.77008104 C-9.08565574 274.17937011 -9.35879136 272.93257451 -9.36127472 269.81022644 C-9.3769212 268.39120513 -9.3769212 268.39120513 -9.39288378 266.94351673 C-9.38396089 265.90734054 -9.375038 264.87116434 -9.36584473 263.80358887 C-9.37208469 262.70043429 -9.37832465 261.59727972 -9.3847537 260.46069622 C-9.40075405 256.7509668 -9.38805134 253.04188803 -9.37548828 249.33215332 C-9.38090627 246.67796907 -9.38788192 244.02383019 -9.39672852 241.36965942 C-9.41453021 234.90108059 -9.4106665 228.43268723 -9.39907795 221.96410108 C-9.39005035 216.70773116 -9.3888167 211.45141328 -9.39317322 206.19503784 C-9.39378615 205.44738716 -9.39439908 204.69973647 -9.39503059 203.92942971 C-9.39630947 202.41066876 -9.39760632 200.89190782 -9.39892095 199.37314689 C-9.41033158 185.12626649 -9.39720551 170.87948899 -9.37571949 156.63262546 C-9.35784804 144.40383581 -9.36095201 132.17519804 -9.37939453 119.94641113 C-9.40079276 105.75108368 -9.4092329 91.55584644 -9.39694548 77.3605051 C-9.39567126 75.84728052 -9.39441378 74.33405591 -9.39317322 72.8208313 C-9.39224756 71.70398084 -9.39224756 71.70398084 -9.39130321 70.56456774 C-9.38784716 65.3135208 -9.39368414 60.06253101 -9.40309143 54.81149292 C-9.41430119 48.41360354 -9.41129312 42.0159105 -9.38996845 35.61804366 C-9.37944394 32.35266152 -9.37750678 29.08767524 -9.38856506 25.8222847 C-9.39944153 22.28528634 -9.38585132 18.74921878 -9.36584473 15.21228027 C-9.37476761 14.17610408 -9.3836905 13.13992788 -9.39288378 12.07235241 C-9.31720519 5.20885989 -9.31720519 5.20885989 -7.12978363 1.87065887 C-4.51057787 0.29959632 -3.0415873 0.00541855 0 0 Z " fill="#000000" transform="translate(38.85791015625,174.4920654296875)"/>
<path d="M0 0 C3.11722506 3.37169242 5.28493348 7.07248156 7.46875 11.09375 C7.78976685 11.68055542 8.11078369 12.26736084 8.44152832 12.87194824 C9.46561338 14.74550364 10.48322641 16.62246827 11.5 18.5 C12.82004951 20.92865397 14.14329449 23.35554236 15.46875 25.78125 C15.80769287 26.40209473 16.14663574 27.02293945 16.49584961 27.66259766 C21.53342896 36.84816797 26.77946843 45.9176331 32 55 C32.00142502 54.35742249 32.00285004 53.71484497 32.00431824 53.05279541 C32.02399362 46.36907174 32.07822106 39.686264 32.15258789 33.00292969 C32.17579539 30.50820485 32.19017001 28.01338165 32.19555664 25.51855469 C32.20482557 21.93361923 32.24577468 18.35023683 32.29296875 14.765625 C32.2890361 13.64883362 32.28510345 12.53204224 32.28105164 11.38140869 C32.42644376 3.67789961 32.42644376 3.67789961 35.31762695 0.26074219 C38.98364786 -1.46232434 41.14066679 -1.072037 45 0 C47.58455285 1.89533875 47.96275506 2.88826517 49 6 C49.10139179 8.67127965 49.14683928 11.31654378 49.14526367 13.98803711 C49.14862228 14.80134995 49.1519809 15.61466278 49.15544128 16.45262146 C49.16494907 19.14421104 49.16689425 21.83573841 49.16796875 24.52734375 C49.17118125 26.39677455 49.17454531 28.26620511 49.17805481 30.13563538 C49.1840455 34.05551741 49.18589475 37.97537739 49.18530273 41.89526367 C49.18520107 46.92029766 49.19885812 51.94519049 49.21607494 56.970191 C49.22718789 60.83147329 49.22922217 64.69272137 49.22869301 68.55401802 C49.229874 70.40678965 49.23430245 72.25956213 49.24202538 74.11231804 C49.25181182 76.70250241 49.24895266 79.29237914 49.24291992 81.88256836 C49.24853943 82.64893616 49.25415894 83.41530396 49.25994873 84.20489502 C49.23780079 87.94305862 49.16770387 90.86920252 47 94 C44.36491618 96.04950964 42.8864488 95.9979723 39.5 95.9375 C34.59134367 94.62268134 33.07589986 91.74872684 30.48291016 87.53417969 C29.76820557 86.24108887 29.76820557 86.24108887 29.0390625 84.921875 C28.21752686 83.44448853 28.21752686 83.44448853 27.37939453 81.93725586 C26.80044434 80.88546143 26.22149414 79.83366699 25.625 78.75 C24.38555608 76.5168497 23.14596823 74.28377928 21.90625 72.05078125 C21.26816406 70.89787598 20.63007813 69.7449707 19.97265625 68.55712891 C17.08265908 63.33977775 14.16342205 58.13882505 11.24584961 52.93685913 C8.82888948 48.6255124 6.41472504 44.31259884 4 40 C3.99857498 40.64257751 3.99714996 41.28515503 3.99568176 41.94720459 C3.97600638 48.63092826 3.92177894 55.313736 3.84741211 61.99707031 C3.82420461 64.49179515 3.80982999 66.98661835 3.80444336 69.48144531 C3.79517443 73.06638077 3.75422532 76.64976317 3.70703125 80.234375 C3.71293022 81.90956207 3.71293022 81.90956207 3.71894836 83.61859131 C3.57355624 91.32210039 3.57355624 91.32210039 0.68237305 94.73925781 C-2.98364786 96.46232434 -5.14066679 96.072037 -9 95 C-11.05938216 93.42114034 -11.84571211 92.30857577 -13 90 C-13.11393722 87.34161854 -13.16783189 84.70882696 -13.17700195 82.04956055 C-13.18357315 81.22824646 -13.19014435 80.40693237 -13.19691467 79.56072998 C-13.216665 76.83605869 -13.228314 74.11144256 -13.23828125 71.38671875 C-13.24235678 70.45702585 -13.2464323 69.52733295 -13.25063133 68.56946754 C-13.27149931 63.64893439 -13.28579796 58.72842918 -13.29516602 53.80786133 C-13.306233 48.72334488 -13.34063411 43.63926577 -13.38033772 38.55490398 C-13.40647276 34.64725425 -13.41485507 30.73970921 -13.41844749 26.83197975 C-13.42332139 24.95768085 -13.43495817 23.08338687 -13.45348549 21.2091732 C-13.47781137 18.58530319 -13.47692412 15.9625711 -13.4699707 13.33862305 C-13.48278076 12.56492874 -13.49559082 11.79123444 -13.50878906 10.99409485 C-13.4729331 7.28041592 -13.12569295 5.19527853 -11.09562683 2.04133606 C-7.33445545 -1.6223958 -5.041334 -1.21687372 0 0 Z " fill="#000000" transform="translate(302,261)"/>
<path d="M0 0 C3.50550897 3.6336075 4.87275163 6.98252115 6.19824219 11.80981445 C6.38414413 12.47378738 6.57004608 13.13776031 6.76158142 13.82185364 C7.36819178 15.99932766 7.95759805 18.18105898 8.546875 20.36328125 C8.96608576 21.88100422 9.38636946 23.3984312 9.80767822 24.91557312 C10.90995301 28.89600713 11.99766242 32.88027889 13.08233643 36.86553955 C14.19321829 40.93687741 15.31789842 45.0043976 16.44140625 49.07226562 C18.64108879 57.0445154 20.82539098 65.02087459 23 73 C26.55847524 60.9228644 30.07156197 48.83593048 33.421875 36.69921875 C33.97777012 34.69463526 34.53375948 32.6900779 35.08984375 30.68554688 C35.93286635 27.64544324 36.77264729 24.6045959 37.60400391 21.5612793 C38.43000328 18.54214994 39.26849118 15.52673106 40.109375 12.51171875 C40.35629089 11.59629807 40.60320679 10.68087738 40.85760498 9.73771667 C41.09505432 8.89445328 41.33250366 8.05118988 41.57714844 7.18237305 C41.78031677 6.44423874 41.98348511 5.70610443 42.19281006 4.94560242 C43.13188356 2.68211574 44.09066103 1.52698621 46 0 C50.10581917 -1.14050533 52.08311561 -1.49830673 55.875 0.5625 C58.49156978 3.56385945 58.70187137 5.05082901 59 9 C58.49452418 11.70873652 57.91190622 14.21811907 57.1574707 16.85375977 C56.94946335 17.61713654 56.74145599 18.38051331 56.52714539 19.16702271 C55.83906859 21.67875384 55.13308174 24.18502648 54.42578125 26.69140625 C53.93995561 28.4418488 53.45487452 30.19249815 52.97050476 31.94334412 C51.95361571 35.60799906 50.92785459 39.27002158 49.89575195 42.93041992 C48.57549331 47.61545144 47.27729287 52.30625781 45.98566914 56.99925327 C44.98814001 60.61429135 43.97904757 64.22602264 42.96645164 67.83686638 C42.48330521 69.56499781 42.00371678 71.29412815 41.52779579 73.02426338 C40.86005377 75.44485183 40.17686694 77.86055651 39.48950195 80.27563477 C39.29659576 80.98694046 39.10368958 81.69824615 38.90493774 82.43110657 C37.29317351 87.9944632 35.10392149 91.61332447 30.25 94.8125 C25.65748496 96.49053434 21.63176629 96.97511659 17.0390625 95.2734375 C11.6906228 92.497665 9.74192865 89.17067729 7.84199524 83.61199951 C7.46438544 82.30695859 7.09474685 80.99959366 6.73168945 79.69042969 C6.52642639 78.9726384 6.32116333 78.25484711 6.10968018 77.51530457 C5.4365295 75.15292999 4.77438672 72.78764641 4.11328125 70.421875 C3.64705226 68.76897627 3.18050986 67.11616591 2.71366882 65.46343994 C1.73785441 62.0016113 0.7678432 58.53821809 -0.19848633 55.07373047 C-1.43293131 50.65086087 -2.68467384 46.23310206 -3.94125652 41.81647873 C-4.90942049 38.40423229 -5.86671327 34.98900557 -6.82099342 31.57285309 C-7.27779529 29.94366513 -7.73826653 28.31550112 -8.20258141 26.68843842 C-12.9207812 10.11840237 -12.9207812 10.11840237 -12 3 C-8.57534782 -1.2462213 -5.0770835 -1.45059529 0 0 Z " fill="#000000" transform="translate(157,261)"/>
<path d="M0 0 C1.20560326 -0.0099852 1.20560326 -0.0099852 2.43556213 -0.02017212 C4.13255531 -0.03028019 5.82958808 -0.03498971 7.52661133 -0.03466797 C10.11671656 -0.03904192 12.70511787 -0.07538048 15.29492188 -0.11328125 C16.94660878 -0.11914977 18.59830374 -0.12311893 20.25 -0.125 C21.40646278 -0.14655655 21.40646278 -0.14655655 22.58628845 -0.16854858 C26.34008117 -0.13679777 28.48342418 0.20343389 31.6796875 2.23974609 C33.69140625 4.3359375 33.69140625 4.3359375 34.3203125 6.3359375 C34.29839844 6.9959375 34.27648437 7.6559375 34.25390625 8.3359375 C34.25583984 9.3259375 34.25583984 9.3259375 34.2578125 10.3359375 C33.4262723 13.27213463 32.06278003 14.43688572 29.69140625 16.3359375 C26.66699219 16.79003906 26.66699219 16.79003906 23.17578125 16.7265625 C21.92539062 16.71367187 20.675 16.70078125 19.38671875 16.6875 C17.43378906 16.63722656 17.43378906 16.63722656 15.44140625 16.5859375 C14.12398437 16.56789063 12.8065625 16.54984375 11.44921875 16.53125 C8.19630469 16.48410632 4.94376408 16.41236366 1.69140625 16.3359375 C1.69140625 24.5859375 1.69140625 32.8359375 1.69140625 41.3359375 C3.66625 41.30113281 5.64109375 41.26632812 7.67578125 41.23046875 C10.26431442 41.20233252 12.85285678 41.17503219 15.44140625 41.1484375 C16.74335938 41.12330078 18.0453125 41.09816406 19.38671875 41.07226562 C21.26230469 41.05776367 21.26230469 41.05776367 23.17578125 41.04296875 C24.32788086 41.0272583 25.47998047 41.01154785 26.66699219 40.99536133 C29.98563455 41.36907025 31.34585995 42.00097102 33.69140625 44.3359375 C34.1875 46.4921875 34.1875 46.4921875 34.12890625 48.8359375 C34.12761719 49.609375 34.12632812 50.3828125 34.125 51.1796875 C33.59247309 53.82792944 32.81010852 54.70079787 30.69140625 56.3359375 C27.45388947 57.41510976 25.11388854 57.45019351 21.7109375 57.43359375 C20.54755859 57.43037109 19.38417969 57.42714844 18.18554688 57.42382812 C16.97060547 57.41544922 15.75566406 57.40707031 14.50390625 57.3984375 C13.27736328 57.39392578 12.05082031 57.38941406 10.78710938 57.38476562 C7.7551876 57.37296826 4.72329085 57.35503264 1.69140625 57.3359375 C1.69140625 65.2559375 1.69140625 73.1759375 1.69140625 81.3359375 C3.66625 81.28953125 5.64109375 81.243125 7.67578125 81.1953125 C10.26430782 81.15779762 12.85285071 81.12139716 15.44140625 81.0859375 C16.74335938 81.05242187 18.0453125 81.01890625 19.38671875 80.984375 C20.63710938 80.97148437 21.8875 80.95859375 23.17578125 80.9453125 C24.32788086 80.92436523 25.47998047 80.90341797 26.66699219 80.88183594 C30.32331332 81.43081538 31.45739347 82.45372938 33.69140625 85.3359375 C34.2578125 87.3359375 34.2578125 87.3359375 34.25390625 89.3359375 C34.27582031 89.9959375 34.29773438 90.6559375 34.3203125 91.3359375 C33.30780949 94.55582284 31.50671733 95.54300113 28.69140625 97.3359375 C25.81362495 97.92220354 22.99623928 97.92074488 20.06640625 97.90234375 C19.24188965 97.90854233 18.41737305 97.91474091 17.56787109 97.92112732 C15.82976458 97.9282111 14.09159001 97.92507663 12.35351562 97.91235352 C9.69924789 97.89847849 7.04850195 97.9325855 4.39453125 97.97070312 C2.70182206 97.97165433 1.00910847 97.96979541 -0.68359375 97.96484375 C-1.47330566 97.97810196 -2.26301758 97.99136017 -3.07666016 98.00502014 C-4.19306885 97.98622047 -4.19306885 97.98622047 -5.33203125 97.96704102 C-5.98091309 97.96607925 -6.62979492 97.96511749 -7.29833984 97.96412659 C-10.69474856 96.90277464 -12.16555284 95.13113247 -14.30859375 92.3359375 C-14.78809693 89.34124153 -14.96476515 86.92380257 -14.90795898 83.93725586 C-14.9119017 83.10414383 -14.91584442 82.2710318 -14.91990662 81.41267395 C-14.92660455 78.66642592 -14.89748262 75.92185062 -14.8671875 73.17578125 C-14.86293606 71.26437197 -14.86060868 69.35295752 -14.86012268 67.44154358 C-14.85396087 63.43922463 -14.8312771 59.43746613 -14.7956543 55.43530273 C-14.75035162 50.30490166 -14.73562648 45.17500763 -14.73191738 40.04442501 C-14.72748902 36.09903462 -14.71218606 32.15375065 -14.69304085 28.20840645 C-14.68416169 26.31657346 -14.67743021 24.42472914 -14.67288017 22.53288078 C-14.6638379 19.89013455 -14.64144799 17.24784663 -14.61499023 14.60522461 C-14.61432556 13.82329742 -14.61366089 13.04137024 -14.61297607 12.23574829 C-14.56103897 8.47711165 -14.49125143 5.48510919 -12.30859375 2.3359375 C-8.70434301 -0.4227364 -4.34186746 0.01250126 0 0 Z " fill="#000000" transform="translate(240.30859375,259.6640625)"/>
<path d="M0 0 C1.17443161 -0.00855011 1.17443161 -0.00855011 2.37258911 -0.01727295 C4.02848971 -0.02671345 5.68440901 -0.03325316 7.34033203 -0.03710938 C9.86654616 -0.04681252 12.39194558 -0.07784282 14.91796875 -0.109375 C16.52864101 -0.11590575 18.13931908 -0.12115594 19.75 -0.125 C20.8783577 -0.1435202 20.8783577 -0.1435202 22.0295105 -0.16241455 C26.9752814 -0.14152946 30.44566742 0.64097992 34.0078125 4.203125 C34.60035149 11.43210072 34.60035149 11.43210072 32.38842773 14.31030273 C29.25770138 16.7995368 27.4570494 16.6658384 23.4921875 16.59375 C22.24179688 16.58085937 20.99140625 16.56796875 19.703125 16.5546875 C17.75019531 16.50441406 17.75019531 16.50441406 15.7578125 16.453125 C14.44039062 16.43507813 13.12296875 16.41703125 11.765625 16.3984375 C8.51271094 16.35129382 5.26017033 16.27955116 2.0078125 16.203125 C2.0078125 24.453125 2.0078125 32.703125 2.0078125 41.203125 C3.98265625 41.15671875 5.9575 41.1103125 7.9921875 41.0625 C10.58071407 41.02498512 13.16925696 40.98858466 15.7578125 40.953125 C17.05976562 40.91960937 18.36171875 40.88609375 19.703125 40.8515625 C20.95351562 40.83867187 22.20390625 40.82578125 23.4921875 40.8125 C25.22033691 40.7810791 25.22033691 40.7810791 26.98339844 40.74902344 C30.0078125 41.203125 30.0078125 41.203125 32.38769531 43.00878906 C34.72961921 46.18076193 34.48841115 48.35833579 34.0078125 52.203125 C32.24766119 55.3881607 31.50890334 56.03609472 28.0078125 57.203125 C26.0157822 57.28604453 24.02107537 57.31050677 22.02734375 57.30078125 C20.86396484 57.29755859 19.70058594 57.29433594 18.50195312 57.29101562 C17.28701172 57.28263672 16.07207031 57.27425781 14.8203125 57.265625 C13.59376953 57.26111328 12.36722656 57.25660156 11.10351562 57.25195312 C8.07159385 57.24015576 5.0396971 57.22222014 2.0078125 57.203125 C2.0078125 65.123125 2.0078125 73.043125 2.0078125 81.203125 C3.98265625 81.15671875 5.9575 81.1103125 7.9921875 81.0625 C10.58071407 81.02498512 13.16925696 80.98858466 15.7578125 80.953125 C17.05976562 80.91960937 18.36171875 80.88609375 19.703125 80.8515625 C20.95351562 80.83867187 22.20390625 80.82578125 23.4921875 80.8125 C24.64428711 80.79155273 25.79638672 80.77060547 26.98339844 80.74902344 C30.63971957 81.29800288 31.77379972 82.32091688 34.0078125 85.203125 C34.57421875 87.203125 34.57421875 87.203125 34.5703125 89.203125 C34.59222656 89.863125 34.61414063 90.523125 34.63671875 91.203125 C33.62421574 94.42301034 31.82312358 95.41018863 29.0078125 97.203125 C26.1300312 97.78939104 23.31264553 97.78793238 20.3828125 97.76953125 C19.5582959 97.77572983 18.7337793 97.78192841 17.88427734 97.78831482 C16.14617083 97.7953986 14.40799626 97.79226413 12.66992188 97.77954102 C10.01565414 97.76566599 7.3649082 97.799773 4.7109375 97.83789062 C3.01822831 97.83884183 1.32551472 97.83698291 -0.3671875 97.83203125 C-1.15689941 97.84528946 -1.94661133 97.85854767 -2.76025391 97.87220764 C-3.8766626 97.85340797 -3.8766626 97.85340797 -5.015625 97.83422852 C-5.66450684 97.83326675 -6.31338867 97.83230499 -6.98193359 97.83131409 C-10.38182844 96.76887275 -11.84839657 95.00345834 -13.9921875 92.203125 C-14.47663365 89.18072484 -14.65809735 86.72818384 -14.60742188 83.71264648 C-14.61297089 82.86978088 -14.6185199 82.02691528 -14.62423706 81.1585083 C-14.63602257 78.37982866 -14.61177202 75.60278365 -14.5859375 72.82421875 C-14.58422619 70.8903867 -14.58429229 68.95655233 -14.58605957 67.02272034 C-14.58440701 62.97333532 -14.56571907 58.92450437 -14.53417969 54.87524414 C-14.49447581 49.68421685 -14.4901379 44.49391428 -14.49764252 39.30276394 C-14.50071137 35.31103371 -14.48859514 31.3194665 -14.47151184 27.32777596 C-14.4644802 25.41361577 -14.46135751 23.49943712 -14.46220398 21.58526421 C-14.46040689 18.91123907 -14.43903381 16.23808377 -14.41210938 13.56420898 C-14.41503998 12.77293106 -14.41797058 11.98165314 -14.42098999 11.16639709 C-14.37096779 7.94771072 -14.20660464 5.59713628 -12.65344238 2.74305725 C-9.0726284 -0.57624733 -4.58539029 0.02576714 0 0 Z " fill="#000000" transform="translate(101.9921875,259.796875)"/>
<path d="M0 0 C1.10487259 -0.00960754 2.20974518 -0.01921509 3.34809875 -0.02911377 C5.14648445 -0.03548859 5.14648445 -0.03548859 6.98120117 -0.04199219 C8.20949142 -0.04769226 9.43778168 -0.05339233 10.70329285 -0.05926514 C13.30674373 -0.06872588 15.91020665 -0.07525337 18.51367188 -0.07910156 C22.4971514 -0.08565513 26.48026428 -0.11981388 30.46362305 -0.15136719 C32.99031268 -0.15789758 35.51700602 -0.16314791 38.04370117 -0.16699219 C39.23655228 -0.17933899 40.42940338 -0.19168579 41.65840149 -0.20440674 C42.77273056 -0.20140564 43.88705963 -0.19840454 45.03515625 -0.1953125 C46.01285477 -0.19895813 46.99055328 -0.20260376 47.99787903 -0.20635986 C51.21517561 0.2293159 53.09872846 1.2642332 55.71166992 3.16113281 C57.25753868 6.25287033 57.00526514 8.75542834 56.71166992 12.16113281 C55.39526367 14.37207031 55.39526367 14.37207031 52.71166992 16.16113281 C48.9512787 16.6579114 45.24616531 16.53600195 41.46166992 16.41113281 C40.43041992 16.39308594 39.39916992 16.37503906 38.33666992 16.35644531 C35.79405928 16.30935993 33.25333831 16.24361331 30.71166992 16.16113281 C30.72832451 17.59480194 30.72832451 17.59480194 30.74531555 19.05743408 C30.84665004 28.06236239 30.92161514 37.06717511 30.97073078 46.0725441 C30.99683074 50.70241295 31.03223563 55.33182173 31.08886719 59.96142578 C31.14317341 64.42886631 31.17308746 68.8958642 31.18605614 73.36360931 C31.19529859 75.06851929 31.21334725 76.77340488 31.24032021 78.47812653 C31.27659402 80.86550841 31.28161627 83.251059 31.27929688 85.63867188 C31.29727325 86.34429764 31.31524963 87.0499234 31.33377075 87.77693176 C31.2944659 91.51331106 30.96938286 92.89845809 28.30949402 95.60955811 C25.64347013 97.20186577 24.60211545 97.65525541 21.58666992 97.22363281 C20.9240918 97.15273438 20.26151367 97.08183594 19.57885742 97.00878906 C16.71892136 95.71044989 16.06315714 93.96381229 14.71166992 91.16113281 C14.44276737 88.59067556 14.33062829 86.27240296 14.37109375 83.70874023 C14.37043663 82.61036835 14.37043663 82.61036835 14.36976624 81.48980713 C14.37184775 79.08179587 14.39514782 76.67449043 14.41870117 74.26660156 C14.42429941 72.59223308 14.42856843 70.91785966 14.43156433 69.2434845 C14.44299518 64.84573701 14.47244707 60.44828878 14.50567627 56.05065918 C14.53641519 51.55953011 14.55007782 47.06835248 14.56518555 42.57714844 C14.5973186 33.77167287 14.64849347 24.96644011 14.71166992 16.16113281 C14.06093506 16.17684326 13.4102002 16.19255371 12.73974609 16.20874023 C9.79297568 16.2710793 6.84634394 16.31011965 3.89916992 16.34863281 C2.87500977 16.37376953 1.85084961 16.39890625 0.7956543 16.42480469 C-0.67871094 16.43930664 -0.67871094 16.43930664 -2.18286133 16.45410156 C-3.08883057 16.46981201 -3.9947998 16.48552246 -4.92822266 16.50170898 C-7.28833008 16.16113281 -7.28833008 16.16113281 -9.04882812 14.85375977 C-11.11713356 12.02934346 -11.22894328 9.60556689 -11.28833008 6.16113281 C-8.04340256 1.0140064 -5.878173 0.04115216 0 0 Z " fill="#000000" transform="translate(371.288330078125,259.8388671875)"/>
</svg>
